<mxfile host="app.diagrams.net" modified="2021-08-15T09:02:45.497Z" agent="5.0 (X11)" etag="HrV2Pms5Cpymm9u24Bb_" version="14.9.6" type="github">
  <diagram id="xeyh_vRzHHK7A7ayoxn0" name="Page-1">
    <mxGraphModel dx="1422" dy="748" grid="0" gridSize="10" guides="1" tooltips="1" connect="1" arrows="1" fold="1" page="1" pageScale="1" pageWidth="827" pageHeight="1169" background="none" math="0" shadow="0">
      <root>
        <mxCell id="0" />
        <mxCell id="1" parent="0" />
        <mxCell id="Jh4NUaDIToUpY9Pb37P1-2" value="&lt;div&gt;User&lt;/div&gt;" style="shape=umlActor;verticalLabelPosition=bottom;verticalAlign=top;html=1;outlineConnect=0;gradientColor=none;" vertex="1" parent="1">
          <mxGeometry x="170" y="220" width="30" height="60" as="geometry" />
        </mxCell>
        <mxCell id="Jh4NUaDIToUpY9Pb37P1-3" value="Program" style="rounded=1;whiteSpace=wrap;html=1;gradientColor=none;" vertex="1" parent="1">
          <mxGeometry x="390" y="220" width="120" height="60" as="geometry" />
        </mxCell>
        <mxCell id="Jh4NUaDIToUpY9Pb37P1-4" value="interacts" style="shape=flexArrow;endArrow=classic;startArrow=classic;html=1;entryX=0;entryY=0.5;entryDx=0;entryDy=0;" edge="1" parent="1" target="Jh4NUaDIToUpY9Pb37P1-3">
          <mxGeometry width="100" height="100" relative="1" as="geometry">
            <mxPoint x="200" y="250" as="sourcePoint" />
            <mxPoint x="360" y="250" as="targetPoint" />
          </mxGeometry>
        </mxCell>
        <mxCell id="Jh4NUaDIToUpY9Pb37P1-5" value="Program A" style="rounded=1;whiteSpace=wrap;html=1;gradientColor=none;" vertex="1" parent="1">
          <mxGeometry x="125" y="350" width="120" height="60" as="geometry" />
        </mxCell>
        <mxCell id="Jh4NUaDIToUpY9Pb37P1-6" value="Program B" style="rounded=1;whiteSpace=wrap;html=1;gradientColor=none;" vertex="1" parent="1">
          <mxGeometry x="390" y="350" width="120" height="60" as="geometry" />
        </mxCell>
        <mxCell id="Jh4NUaDIToUpY9Pb37P1-7" value="interacts" style="shape=flexArrow;endArrow=classic;startArrow=classic;html=1;" edge="1" parent="1">
          <mxGeometry width="100" height="100" relative="1" as="geometry">
            <mxPoint x="245" y="379.5" as="sourcePoint" />
            <mxPoint x="390" y="380" as="targetPoint" />
          </mxGeometry>
        </mxCell>
        <mxCell id="Jh4NUaDIToUpY9Pb37P1-8" value="&lt;div&gt;Server&lt;/div&gt;" style="text;html=1;strokeColor=none;fillColor=none;align=center;verticalAlign=middle;whiteSpace=wrap;rounded=0;" vertex="1" parent="1">
          <mxGeometry x="165" y="410" width="40" height="20" as="geometry" />
        </mxCell>
        <mxCell id="Jh4NUaDIToUpY9Pb37P1-9" value="Client" style="text;html=1;strokeColor=none;fillColor=none;align=center;verticalAlign=middle;whiteSpace=wrap;rounded=0;" vertex="1" parent="1">
          <mxGeometry x="430" y="410" width="40" height="20" as="geometry" />
        </mxCell>
        <mxCell id="Jh4NUaDIToUpY9Pb37P1-11" value="" style="rounded=1;whiteSpace=wrap;html=1;gradientColor=none;" vertex="1" parent="1">
          <mxGeometry x="184" y="470" width="230" height="170" as="geometry" />
        </mxCell>
        <mxCell id="Jh4NUaDIToUpY9Pb37P1-14" value="bridge the gap" style="rounded=1;whiteSpace=wrap;html=1;gradientColor=none;" vertex="1" parent="1">
          <mxGeometry x="239" y="525" width="120" height="60" as="geometry" />
        </mxCell>
        <mxCell id="Jh4NUaDIToUpY9Pb37P1-12" value="deal with input" style="rounded=1;whiteSpace=wrap;html=1;gradientColor=none;" vertex="1" parent="1">
          <mxGeometry x="200" y="480" width="120" height="60" as="geometry" />
        </mxCell>
        <mxCell id="Jh4NUaDIToUpY9Pb37P1-13" value="create output" style="rounded=1;whiteSpace=wrap;html=1;gradientColor=none;" vertex="1" parent="1">
          <mxGeometry x="280" y="570" width="120" height="60" as="geometry" />
        </mxCell>
        <mxCell id="Jh4NUaDIToUpY9Pb37P1-15" value="Program consists of many building blocks" style="text;html=1;strokeColor=none;fillColor=none;align=center;verticalAlign=middle;whiteSpace=wrap;rounded=0;" vertex="1" parent="1">
          <mxGeometry x="184" y="640" width="230" height="20" as="geometry" />
        </mxCell>
      </root>
    </mxGraphModel>
  </diagram>
</mxfile>
